<mxfile host="www.draw.io" modified="2020-02-14T00:20:55.560Z" agent="Mozilla/5.0 (Macintosh; Intel Mac OS X 10_15_3) AppleWebKit/537.36 (KHTML, like Gecko) Chrome/80.0.3987.87 Safari/537.36" etag="OfFIC-X-KUPsriFtiY_V" version="12.7.0" type="github">
  <diagram name="Page-1" id="7e0a89b8-554c-2b80-1dc8-d5c74ca68de4">
    <mxGraphModel dx="1186" dy="724" grid="1" gridSize="10" guides="1" tooltips="1" connect="1" arrows="1" fold="1" page="1" pageScale="1" pageWidth="1100" pageHeight="850" background="#ffffff" math="0" shadow="0">
      <root>
        <mxCell id="0"/>
        <mxCell id="1" parent="0"/>
        <mxCell id="dqoyC9YQfbvekCFBguCb-6" value="" style="endArrow=none;html=1;strokeWidth=10;" parent="1" edge="1">
          <mxGeometry width="50" height="50" relative="1" as="geometry">
            <mxPoint x="930" y="110" as="sourcePoint"/>
            <mxPoint x="680" y="110" as="targetPoint"/>
          </mxGeometry>
        </mxCell>
        <mxCell id="dqoyC9YQfbvekCFBguCb-2" value="Dish" style="ellipse;whiteSpace=wrap;html=1;fillColor=#bac8d3;strokeColor=#23445d;" parent="1" vertex="1">
          <mxGeometry x="730" y="30" width="160" height="120" as="geometry"/>
        </mxCell>
        <mxCell id="dqoyC9YQfbvekCFBguCb-3" value="" style="ellipse;whiteSpace=wrap;html=1;aspect=fixed;" parent="1" vertex="1">
          <mxGeometry x="795" y="110" width="30" height="30" as="geometry"/>
        </mxCell>
        <mxCell id="dqoyC9YQfbvekCFBguCb-22" style="edgeStyle=orthogonalEdgeStyle;rounded=0;orthogonalLoop=1;jettySize=auto;html=1;entryX=0.5;entryY=0;entryDx=0;entryDy=0;entryPerimeter=0;startArrow=none;startFill=0;strokeWidth=2;" parent="1" source="dqoyC9YQfbvekCFBguCb-4" target="dqoyC9YQfbvekCFBguCb-21" edge="1">
          <mxGeometry relative="1" as="geometry"/>
        </mxCell>
        <mxCell id="dqoyC9YQfbvekCFBguCb-46" value="From LNB&lt;br&gt;900 - 1900 MHz" style="text;html=1;align=center;verticalAlign=middle;resizable=0;points=[];labelBackgroundColor=#ffffff;" parent="dqoyC9YQfbvekCFBguCb-22" vertex="1" connectable="0">
          <mxGeometry x="-0.0667" y="-5" relative="1" as="geometry">
            <mxPoint x="-45" y="16" as="offset"/>
          </mxGeometry>
        </mxCell>
        <mxCell id="dqoyC9YQfbvekCFBguCb-30" style="edgeStyle=orthogonalEdgeStyle;rounded=0;orthogonalLoop=1;jettySize=auto;html=1;exitX=0.5;exitY=0;exitDx=0;exitDy=0;entryX=0.5;entryY=1;entryDx=0;entryDy=0;startArrow=classic;startFill=1;strokeWidth=2;" parent="1" source="dqoyC9YQfbvekCFBguCb-4" target="dqoyC9YQfbvekCFBguCb-3" edge="1">
          <mxGeometry relative="1" as="geometry"/>
        </mxCell>
        <mxCell id="dqoyC9YQfbvekCFBguCb-45" value="To LNB" style="text;html=1;align=center;verticalAlign=middle;resizable=0;points=[];labelBackgroundColor=#ffffff;" parent="dqoyC9YQfbvekCFBguCb-30" vertex="1" connectable="0">
          <mxGeometry x="-0.8732" y="-20" relative="1" as="geometry">
            <mxPoint x="14.5" y="-32.5" as="offset"/>
          </mxGeometry>
        </mxCell>
        <mxCell id="dqoyC9YQfbvekCFBguCb-4" value="RF Power inserter" style="rounded=1;whiteSpace=wrap;html=1;fillColor=#b0e3e6;strokeColor=#0e8088;" parent="1" vertex="1">
          <mxGeometry x="440" y="185" width="120" height="60" as="geometry"/>
        </mxCell>
        <mxCell id="dqoyC9YQfbvekCFBguCb-9" value="" style="endArrow=none;html=1;strokeWidth=10;fillColor=#fad9d5;strokeColor=#ae4132;" parent="1" edge="1">
          <mxGeometry width="50" height="50" relative="1" as="geometry">
            <mxPoint x="690" y="190" as="sourcePoint"/>
            <mxPoint x="690" y="100" as="targetPoint"/>
          </mxGeometry>
        </mxCell>
        <mxCell id="dqoyC9YQfbvekCFBguCb-27" style="edgeStyle=orthogonalEdgeStyle;rounded=0;orthogonalLoop=1;jettySize=auto;html=1;exitX=0;exitY=0.5;exitDx=0;exitDy=0;entryX=1;entryY=0.25;entryDx=0;entryDy=0;startArrow=classic;startFill=1;strokeWidth=2;" parent="1" source="dqoyC9YQfbvekCFBguCb-7" target="dqoyC9YQfbvekCFBguCb-25" edge="1">
          <mxGeometry relative="1" as="geometry"/>
        </mxCell>
        <mxCell id="dqoyC9YQfbvekCFBguCb-32" value="+/- 12 VDC w/&lt;br&gt;3.3v encoder" style="text;html=1;align=center;verticalAlign=middle;resizable=0;points=[];labelBackgroundColor=#ffffff;" parent="dqoyC9YQfbvekCFBguCb-27" vertex="1" connectable="0">
          <mxGeometry x="0.4687" y="-1" relative="1" as="geometry">
            <mxPoint x="92.5" y="6" as="offset"/>
          </mxGeometry>
        </mxCell>
        <mxCell id="dqoyC9YQfbvekCFBguCb-7" value="MTR1" style="rounded=1;whiteSpace=wrap;html=1;fillColor=#b1ddf0;strokeColor=#10739e;" parent="1" vertex="1">
          <mxGeometry x="630" y="90" width="50" height="45" as="geometry"/>
        </mxCell>
        <mxCell id="dqoyC9YQfbvekCFBguCb-10" value="" style="endArrow=none;html=1;strokeWidth=10;fillColor=#fad9d5;strokeColor=#ae4132;" parent="1" edge="1">
          <mxGeometry width="50" height="50" relative="1" as="geometry">
            <mxPoint x="930" y="190" as="sourcePoint"/>
            <mxPoint x="930" y="100" as="targetPoint"/>
          </mxGeometry>
        </mxCell>
        <mxCell id="dqoyC9YQfbvekCFBguCb-11" value="" style="endArrow=none;html=1;strokeWidth=10;fillColor=#fad9d5;strokeColor=#ae4132;" parent="1" edge="1">
          <mxGeometry width="50" height="50" relative="1" as="geometry">
            <mxPoint x="930" y="190" as="sourcePoint"/>
            <mxPoint x="690" y="190" as="targetPoint"/>
          </mxGeometry>
        </mxCell>
        <mxCell id="dqoyC9YQfbvekCFBguCb-12" value="" style="endArrow=none;html=1;strokeWidth=30;" parent="1" edge="1">
          <mxGeometry width="50" height="50" relative="1" as="geometry">
            <mxPoint x="810" y="240" as="sourcePoint"/>
            <mxPoint x="810" y="180" as="targetPoint"/>
          </mxGeometry>
        </mxCell>
        <mxCell id="dqoyC9YQfbvekCFBguCb-13" value="" style="endArrow=none;html=1;strokeWidth=10;fillColor=#fad9d5;strokeColor=#ae4132;" parent="1" edge="1">
          <mxGeometry width="50" height="50" relative="1" as="geometry">
            <mxPoint x="930" y="230" as="sourcePoint"/>
            <mxPoint x="690" y="230" as="targetPoint"/>
          </mxGeometry>
        </mxCell>
        <mxCell id="dqoyC9YQfbvekCFBguCb-29" style="edgeStyle=orthogonalEdgeStyle;rounded=0;orthogonalLoop=1;jettySize=auto;html=1;entryX=1;entryY=0.75;entryDx=0;entryDy=0;startArrow=classic;startFill=1;strokeWidth=2;" parent="1" source="dqoyC9YQfbvekCFBguCb-14" target="dqoyC9YQfbvekCFBguCb-25" edge="1">
          <mxGeometry relative="1" as="geometry"/>
        </mxCell>
        <mxCell id="dqoyC9YQfbvekCFBguCb-14" value="MTR2" style="rounded=1;whiteSpace=wrap;html=1;fillColor=#b1ddf0;strokeColor=#10739e;" parent="1" vertex="1">
          <mxGeometry x="785" y="240" width="50" height="45" as="geometry"/>
        </mxCell>
        <mxCell id="dqoyC9YQfbvekCFBguCb-15" value="" style="endArrow=none;html=1;strokeWidth=10;fillColor=#fad9d5;strokeColor=#ae4132;" parent="1" edge="1">
          <mxGeometry width="50" height="50" relative="1" as="geometry">
            <mxPoint x="690" y="300" as="sourcePoint"/>
            <mxPoint x="690" y="230" as="targetPoint"/>
          </mxGeometry>
        </mxCell>
        <mxCell id="dqoyC9YQfbvekCFBguCb-16" value="" style="endArrow=none;html=1;strokeWidth=10;fillColor=#fad9d5;strokeColor=#ae4132;" parent="1" edge="1">
          <mxGeometry width="50" height="50" relative="1" as="geometry">
            <mxPoint x="930" y="300" as="sourcePoint"/>
            <mxPoint x="930" y="230" as="targetPoint"/>
          </mxGeometry>
        </mxCell>
        <mxCell id="dqoyC9YQfbvekCFBguCb-17" value="" style="endArrow=none;html=1;strokeWidth=10;fillColor=#fad9d5;strokeColor=#ae4132;" parent="1" edge="1">
          <mxGeometry width="50" height="50" relative="1" as="geometry">
            <mxPoint x="930" y="300" as="sourcePoint"/>
            <mxPoint x="690" y="300" as="targetPoint"/>
          </mxGeometry>
        </mxCell>
        <mxCell id="dqoyC9YQfbvekCFBguCb-18" value="" style="verticalLabelPosition=bottom;shadow=0;dashed=0;align=center;html=1;verticalAlign=top;shape=mxgraph.electrical.rot_mech.verticalLabelPosition=bottom;shadow=0;dashed=0;align=center;fillColor=#ffe6cc;html=1;verticalAlign=top;strokeWidth=2;shape=mxgraph.electrical.rot_mech.rotation;strokeColor=#d79b00;" parent="1" vertex="1">
          <mxGeometry x="775" y="200" width="69" height="20" as="geometry"/>
        </mxCell>
        <mxCell id="dqoyC9YQfbvekCFBguCb-19" value="" style="verticalLabelPosition=bottom;shadow=0;dashed=0;align=center;html=1;verticalAlign=top;shape=mxgraph.electrical.rot_mech.verticalLabelPosition=bottom;shadow=0;dashed=0;align=center;fillColor=#ffe6cc;html=1;verticalAlign=top;strokeWidth=2;shape=mxgraph.electrical.rot_mech.rotation;strokeColor=#d79b00;rotation=-90;" parent="1" vertex="1">
          <mxGeometry x="680" y="102.5" width="69" height="20" as="geometry"/>
        </mxCell>
        <mxCell id="dqoyC9YQfbvekCFBguCb-37" style="edgeStyle=orthogonalEdgeStyle;rounded=0;orthogonalLoop=1;jettySize=auto;html=1;exitX=0;exitY=0.5;exitDx=0;exitDy=0;exitPerimeter=0;entryX=0.75;entryY=0;entryDx=0;entryDy=0;startArrow=classic;startFill=1;strokeWidth=2;" parent="1" source="dqoyC9YQfbvekCFBguCb-21" target="dqoyC9YQfbvekCFBguCb-34" edge="1">
          <mxGeometry relative="1" as="geometry"/>
        </mxCell>
        <mxCell id="dqoyC9YQfbvekCFBguCb-38" value="gnuradio interface" style="text;html=1;align=center;verticalAlign=middle;resizable=0;points=[];labelBackgroundColor=#ffffff;" parent="dqoyC9YQfbvekCFBguCb-37" vertex="1" connectable="0">
          <mxGeometry x="0.1131" relative="1" as="geometry">
            <mxPoint x="9" y="-13" as="offset"/>
          </mxGeometry>
        </mxCell>
        <mxCell id="dqoyC9YQfbvekCFBguCb-21" value="HackRF one&lt;br&gt;Software Defined Radio" style="verticalLabelPosition=bottom;shadow=0;dashed=0;align=center;html=1;verticalAlign=top;shape=mxgraph.electrical.abstract.filter;strokeWidth=2;fillColor=#d5e8d4;strokeColor=#82b366;" parent="1" vertex="1">
          <mxGeometry x="474" y="350" width="52" height="46" as="geometry"/>
        </mxCell>
        <mxCell id="dqoyC9YQfbvekCFBguCb-24" style="edgeStyle=orthogonalEdgeStyle;rounded=0;orthogonalLoop=1;jettySize=auto;html=1;entryX=0;entryY=0.5;entryDx=0;entryDy=0;startArrow=none;startFill=0;strokeWidth=2;" parent="1" source="dqoyC9YQfbvekCFBguCb-23" target="dqoyC9YQfbvekCFBguCb-4" edge="1">
          <mxGeometry relative="1" as="geometry"/>
        </mxCell>
        <mxCell id="dqoyC9YQfbvekCFBguCb-31" value="13 or 18V @&lt;br&gt;0 or 22KHz" style="text;html=1;align=center;verticalAlign=middle;resizable=0;points=[];labelBackgroundColor=#ffffff;" parent="dqoyC9YQfbvekCFBguCb-24" vertex="1" connectable="0">
          <mxGeometry x="-0.0667" y="4" relative="1" as="geometry">
            <mxPoint y="19" as="offset"/>
          </mxGeometry>
        </mxCell>
        <mxCell id="dqoyC9YQfbvekCFBguCb-23" value="LNB9P-LIT" style="pointerEvents=1;verticalLabelPosition=bottom;shadow=0;dashed=0;align=center;html=1;verticalAlign=top;shape=mxgraph.electrical.signal_sources.dc_source_2;strokeWidth=2;fillColor=#f8cecc;strokeColor=#b85450;" parent="1" vertex="1">
          <mxGeometry x="290" y="185" width="60" height="60" as="geometry"/>
        </mxCell>
        <mxCell id="dqoyC9YQfbvekCFBguCb-26" style="edgeStyle=orthogonalEdgeStyle;rounded=0;orthogonalLoop=1;jettySize=auto;html=1;entryX=0;entryY=0.5;entryDx=0;entryDy=0;entryPerimeter=0;startArrow=none;startFill=0;strokeWidth=2;" parent="1" source="dqoyC9YQfbvekCFBguCb-25" target="dqoyC9YQfbvekCFBguCb-23" edge="1">
          <mxGeometry relative="1" as="geometry"/>
        </mxCell>
        <mxCell id="dqoyC9YQfbvekCFBguCb-47" value="LNB power&lt;br&gt;control signals" style="text;html=1;align=center;verticalAlign=middle;resizable=0;points=[];labelBackgroundColor=#ffffff;" parent="dqoyC9YQfbvekCFBguCb-26" vertex="1" connectable="0">
          <mxGeometry x="-0.2174" y="1" relative="1" as="geometry">
            <mxPoint x="49" y="-15" as="offset"/>
          </mxGeometry>
        </mxCell>
        <mxCell id="dqoyC9YQfbvekCFBguCb-35" style="edgeStyle=orthogonalEdgeStyle;rounded=0;orthogonalLoop=1;jettySize=auto;html=1;exitX=0.25;exitY=1;exitDx=0;exitDy=0;entryX=0.25;entryY=0;entryDx=0;entryDy=0;startArrow=classic;startFill=1;strokeWidth=2;" parent="1" source="dqoyC9YQfbvekCFBguCb-25" target="dqoyC9YQfbvekCFBguCb-34" edge="1">
          <mxGeometry relative="1" as="geometry"/>
        </mxCell>
        <mxCell id="dqoyC9YQfbvekCFBguCb-36" value="JSON based control&lt;br&gt;protocol over serial USB" style="text;html=1;align=center;verticalAlign=middle;resizable=0;points=[];labelBackgroundColor=#ffffff;" parent="dqoyC9YQfbvekCFBguCb-35" vertex="1" connectable="0">
          <mxGeometry x="-0.2914" y="-3" relative="1" as="geometry">
            <mxPoint x="-37" y="56" as="offset"/>
          </mxGeometry>
        </mxCell>
        <mxCell id="dqoyC9YQfbvekCFBguCb-25" value="Arduino Due" style="rounded=1;whiteSpace=wrap;html=1;strokeWidth=2;fillColor=#fff2cc;strokeColor=#d6b656;" parent="1" vertex="1">
          <mxGeometry x="170" y="20" width="200" height="100" as="geometry"/>
        </mxCell>
        <mxCell id="dqoyC9YQfbvekCFBguCb-41" style="edgeStyle=orthogonalEdgeStyle;rounded=0;orthogonalLoop=1;jettySize=auto;html=1;startArrow=classic;startFill=1;strokeWidth=2;endArrow=none;endFill=0;" parent="1" source="dqoyC9YQfbvekCFBguCb-34" target="dqoyC9YQfbvekCFBguCb-40" edge="1">
          <mxGeometry relative="1" as="geometry"/>
        </mxCell>
        <mxCell id="dqoyC9YQfbvekCFBguCb-34" value="Raspberry PI 4" style="rounded=1;whiteSpace=wrap;html=1;strokeWidth=2;fillColor=#ffe6cc;strokeColor=#d79b00;" parent="1" vertex="1">
          <mxGeometry x="200" y="440" width="200" height="100" as="geometry"/>
        </mxCell>
        <mxCell id="dqoyC9YQfbvekCFBguCb-39" value="Web application for tracking and visualization" style="points=[];aspect=fixed;html=1;align=center;shadow=0;dashed=0;image;image=img/lib/allied_telesis/computer_and_terminals/Personal_Computer.svg;strokeWidth=2;" parent="1" vertex="1">
          <mxGeometry x="679.08" y="425" width="95.92" height="130" as="geometry"/>
        </mxCell>
        <mxCell id="dqoyC9YQfbvekCFBguCb-42" style="edgeStyle=orthogonalEdgeStyle;rounded=0;orthogonalLoop=1;jettySize=auto;html=1;startArrow=none;startFill=0;strokeWidth=2;" parent="1" source="dqoyC9YQfbvekCFBguCb-40" target="dqoyC9YQfbvekCFBguCb-39" edge="1">
          <mxGeometry relative="1" as="geometry"/>
        </mxCell>
        <mxCell id="dqoyC9YQfbvekCFBguCb-40" value="" style="html=1;verticalLabelPosition=bottom;align=center;labelBackgroundColor=#ffffff;verticalAlign=top;strokeWidth=2;strokeColor=#0080F0;shadow=0;dashed=0;shape=mxgraph.ios7.icons.wifi;pointerEvents=1" parent="1" vertex="1">
          <mxGeometry x="515" y="465" width="70" height="50" as="geometry"/>
        </mxCell>
        <mxCell id="dqoyC9YQfbvekCFBguCb-44" style="edgeStyle=orthogonalEdgeStyle;rounded=0;orthogonalLoop=1;jettySize=auto;html=1;exitX=1;exitY=0.5;exitDx=0;exitDy=0;entryX=0;entryY=0.5;entryDx=0;entryDy=0;startArrow=none;startFill=0;strokeWidth=2;" parent="1" source="dqoyC9YQfbvekCFBguCb-43" target="dqoyC9YQfbvekCFBguCb-34" edge="1">
          <mxGeometry relative="1" as="geometry"/>
        </mxCell>
        <mxCell id="dqoyC9YQfbvekCFBguCb-43" value="USB GPS" style="shape=image;html=1;verticalAlign=top;verticalLabelPosition=bottom;labelBackgroundColor=#ffffff;imageAspect=0;aspect=fixed;image=https://cdn4.iconfinder.com/data/icons/web-icons-19/711/location-icon-128.png;strokeWidth=2;" parent="1" vertex="1">
          <mxGeometry x="80" y="461" width="58" height="58" as="geometry"/>
        </mxCell>
      </root>
    </mxGraphModel>
  </diagram>
</mxfile>
